Fly_normalized_Motion_pl02
version=1
nRows=21
nColumns=43
inDegrees=yes
endheader
time		pelvis_tilt		pelvis_list		pelvis_rotation		pelvis_tx		pelvis_ty		pelvis_tz		hip_flexion_r		hip_adduction_r		hip_rotation_r		knee_angle_r		ankle_angle_r		subtalar_angle_r		mtp_angle_r		hip_flexion_l		hip_adduction_l		hip_rotation_l		knee_angle_l		ankle_angle_l		subtalar_angle_l		mtp_angle_l		lumbar_extension		lumbar_bending		lumbar_rotation		neck_flexion		neck_lateral_bending		neck_rotation		arm_flex_r		arm_add_r		arm_rot_r		elbow_flex_r		pro_sup_r		wrist_flex_r		wrist_dev_r		hand_finger_flex_r		arm_flex_l		arm_add_l		arm_rot_l		elbow_flex_l		pro_sup_l		wrist_flex_l		wrist_dev_l		hand_finger_flex_l		
0.255000		-0.698475		-16.541148		87.078209		0.061799		1.857608		1.519605		47.018988		-2.498135		8.290844		-122.137082		-0.251570		1.507958		22.194231		69.574539		-6.630991		4.828973		-117.394956		-11.304468		2.314423		22.790261		-33.676831		0.732994		4.171078		20.084269		3.292196		-3.354437		97.149027		-16.250797		12.950474		83.651989		125.579880		20.933427		3.633304		-24.891110		91.239658		-14.152229		22.032956		62.044502		124.307189		-6.879809		0.750196		-7.244263		
0.259293		-0.711594		-16.339897		87.215911		0.061516		1.857990		1.511179		46.616991		-2.469231		8.146821		-121.540518		-3.030839		-0.059976		21.357171		69.818314		-6.665799		4.373194		-116.510877		-11.172317		0.097422		21.934811		-33.729201		0.713400		4.180389		19.911047		3.326678		-3.512091		96.915276		-16.165283		12.785987		83.319125		126.437492		20.955853		3.847316		-24.640989		91.175490		-13.955247		22.137243		61.789122		124.912382		-6.762663		0.630097		-6.759289		
0.263586		-0.707893		-16.148952		87.374596		0.061172		1.858068		1.502813		46.263827		-2.488161		8.080197		-120.890458		-5.781085		-0.642840		20.538835		70.088374		-6.661245		4.056115		-115.689073		-10.717495		-1.316146		21.320232		-33.744275		0.720398		4.157254		19.559832		3.393085		-3.686545		96.640443		-16.084406		12.663367		82.878650		127.015742		20.945548		4.055629		-24.468099		91.072943		-13.807125		22.286803		61.499637		125.225410		-6.594653		0.665306		-6.409257		
0.267879		-0.884944		-15.949051		87.423885		0.060844		1.858255		1.494584		45.998910		-2.582524		7.997318		-120.205279		-8.739282		-2.951633		18.187529		70.314069		-6.601525		3.367570		-114.764241		-10.598705		-3.787831		18.900870		-33.846348		0.538996		4.115708		19.519704		3.409686		-3.835091		96.342429		-16.033104		12.465799		82.572340		128.244809		20.882994		4.057796		-23.819435		90.925532		-13.642252		22.293972		61.325953		125.616066		-6.445049		0.723951		-5.672941		
0.272172		-0.939257		-15.760093		87.570825		0.060342		1.858073		1.486373		45.765555		-2.674985		8.027128		-119.478153		-11.226534		-3.114076		14.000465		70.580551		-6.458494		3.038384		-113.960719		-9.604127		-4.838532		14.220720		-33.893738		0.510684		4.040490		19.218429		3.461637		-3.967641		95.953809		-15.931381		12.221307		82.123319		129.457244		20.649033		3.766951		-22.504191		90.734853		-13.545112		22.413384		61.067195		125.907985		-6.583666		0.832491		-4.577844		
0.276465		-1.132719		-15.608356		87.577193		0.059916		1.857798		1.478397		45.710714		-2.793477		8.165485		-118.689690		-14.613056		-4.508174		12.984654		70.863427		-6.346901		2.487768		-112.989587		-9.593469		-6.523414		13.618588		-33.973315		0.311809		4.028307		19.205609		3.444652		-4.141741		95.647318		-16.037019		12.208477		81.787710		129.723977		20.513145		4.103119		-22.357338		90.584533		-13.489538		22.594155		60.885526		125.871557		-6.426937		0.972177		-4.446772		
0.280758		-1.229288		-15.434629		87.693591		0.059356		1.857400		1.470439		45.647239		-2.917836		8.349275		-117.836499		-17.929710		-4.585870		12.169939		71.140144		-6.189098		2.145591		-112.020216		-9.390505		-7.560390		13.212680		-34.089677		0.236859		3.981871		19.171254		3.463233		-4.287670		95.289401		-16.116440		12.100480		81.397791		129.988508		20.502699		4.244544		-22.215103		90.436961		-13.442891		22.766476		60.680994		125.960146		-6.267158		1.091863		-4.322620		
0.285051		-1.414240		-15.248811		87.744687		0.058789		1.856981		1.462589		45.652354		-3.097160		8.610606		-116.990681		-21.169630		-4.753334		11.269498		71.374091		-6.025500		1.679776		-110.975381		-9.370467		-8.674622		12.659244		-34.260609		0.063675		3.932794		19.258973		3.481575		-4.425092		94.903391		-16.215585		11.941734		81.036136		130.330229		20.528721		4.285588		-22.004052		90.292659		-13.401906		22.892076		60.529448		126.127203		-6.061057		1.239523		-4.126587		
0.289343		-1.623596		-15.037823		87.772996		0.058246		1.856443		1.454777		45.674151		-3.323011		8.905715		-116.151708		-24.005389		-4.378356		10.405322		71.565758		-5.866085		1.215136		-109.901561		-9.332236		-9.503670		12.101961		-34.478772		-0.144911		3.884676		19.398777		3.504202		-4.542947		94.460474		-16.336978		11.737292		80.680615		130.678343		20.587354		4.209181		-21.745954		90.144536		-13.342880		22.943985		60.405539		126.300164		-5.762603		1.462402		-3.864952		
0.293636		-1.830169		-14.803499		87.784170		0.057743		1.855870		1.446997		45.708257		-3.569848		9.195941		-115.327702		-26.345791		-3.471586		9.653494		71.716247		-5.735085		0.768695		-108.822867		-9.238260		-10.009254		11.627732		-34.745687		-0.361536		3.850882		19.584551		3.515467		-4.649942		93.978664		-16.483509		11.518042		80.322197		131.006500		20.649328		4.055836		-21.466368		89.980192		-13.262593		22.915312		60.290169		126.372928		-5.359354		1.777040		-3.601444		
0.297929		-2.029680		-14.555387		87.772010		0.057307		1.855232		1.439270		45.746418		-3.768899		9.484747		-114.558064		-27.941882		-2.266519		9.083448		71.838140		-5.625970		0.345153		-107.727472		-9.123111		-10.230847		11.247410		-35.052148		-0.582874		3.856548		19.807484		3.515678		-4.738051		93.482064		-16.663876		11.302066		79.948533		131.314957		20.698638		3.859780		-21.167163		89.779562		-13.171966		22.842365		60.204754		126.301990		-4.888529		2.140132		-3.408018		
0.302222		-2.143909		-14.288763		87.786114		0.056998		1.854509		1.431571		45.774899		-3.904917		9.644405		-113.805946		-28.961768		-0.913959		8.832544		71.961086		-5.571709		0.040086		-106.646264		-9.014913		-10.145374		11.100841		-35.400544		-0.722984		3.922895		20.058098		3.460085		-4.800388		92.933037		-16.864143		11.067955		79.595883		131.487446		20.696055		3.709025		-20.964780		89.541017		-13.083403		22.766011		60.076966		126.066516		-4.525100		2.445712		-3.388414		
0.306515		-2.369103		-13.945408		87.648246		0.056758		1.853738		1.423930		45.757286		-4.030878		10.006415		-113.186980		-28.814890		0.869507		8.900425		71.937235		-5.542040		-0.387538		-105.524032		-8.827342		-9.858102		10.953916		-35.844262		-1.035094		3.978537		20.315103		3.520547		-4.884584		92.448463		-17.068239		10.900650		79.111606		131.884607		20.724376		3.442683		-20.478601		89.304107		-13.111047		22.787155		60.010311		125.563249		-4.007642		2.780270		-3.705215		
0.310808		-2.492771		-13.668962		87.544457		0.056610		1.852703		1.416352		45.849276		-4.102605		10.133823		-112.575405		-28.609597		1.920611		8.981408		72.010741		-5.539417		-0.678268		-104.412735		-8.737084		-9.629150		10.866572		-36.224219		-1.245268		4.083425		20.536701		3.497209		-4.908668		91.913409		-17.277564		10.771111		78.631345		132.147710		20.740889		3.319683		-20.166321		89.021631		-13.180684		22.828594		59.899957		125.246391		-3.706660		2.979758		-3.945116		
0.315101		-2.564466		-13.362994		87.508098		0.056421		1.851783		1.408787		45.907544		-4.200219		10.104324		-111.948222		-28.213714		2.668106		9.232695		72.069330		-5.526793		-0.827674		-103.245366		-9.038240		-8.863084		10.879618		-36.700647		-1.357321		4.205842		21.010760		3.255898		-4.903043		91.159801		-17.310124		10.282499		78.315396		132.293848		20.561264		3.217923		-19.995669		88.641638		-13.133359		22.612669		59.748111		124.934019		-3.864473		2.968078		-4.357335		
0.319394		-2.636541		-12.899229		87.395825		0.056201		1.850796		1.401155		45.816381		-4.252127		10.187704		-111.321209		-27.816261		3.436018		11.085718		71.867560		-5.546334		-0.961570		-102.087443		-8.926965		-7.874657		11.718432		-37.296997		-1.517249		4.327037		21.186532		3.237532		-4.925683		90.547872		-17.432985		10.037635		77.742236		133.550794		20.222322		2.561891		-18.272640		88.410309		-13.407586		22.964260		59.510105		124.030917		-3.498870		2.871066		-6.535054		
0.323687		-2.696790		-12.645227		87.358048		0.055748		1.849197		1.393812		46.034426		-4.381056		10.093673		-110.806032		-27.262469		3.466057		11.780085		71.908527		-5.448025		-1.043336		-100.896779		-8.977913		-7.223895		12.025283		-37.685535		-1.590672		4.404125		21.416381		3.094181		-4.951237		89.945729		-17.599257		9.936205		77.106031		133.945041		20.071246		2.440856		-17.706198		88.050263		-13.542050		22.916981		59.294071		123.780710		-3.435565		2.847891		-7.274596		
0.327980		-2.748153		-12.455583		87.354832		0.055055		1.847272		1.386438		46.343733		-4.541419		9.952336		-110.306980		-26.685325		3.101720		11.913683		72.016836		-5.304316		-1.105168		-99.713416		-9.127586		-6.638077		12.105145		-37.986575		-1.606828		4.458005		21.610942		2.912595		-4.966543		89.298160		-17.830462		9.944373		76.456017		133.956932		20.006962		2.546543		-17.677288		87.571229		-13.653559		22.728715		59.108706		123.850764		-3.520459		2.816528		-7.335965		
0.332273		-2.807434		-12.227151		87.353734		0.054279		1.845233		1.379010		46.633386		-4.713044		9.803298		-109.805324		-26.162226		2.489373		12.002100		72.055830		-5.158933		-1.151587		-98.513476		-9.342427		-5.855035		12.239535		-38.326512		-1.615882		4.486090		21.748817		2.719283		-4.954510		88.598872		-18.091424		10.005661		75.778284		133.985684		19.893095		2.629719		-17.666052		87.052616		-13.800259		22.542591		58.934566		123.982067		-3.645527		2.717779		-7.379968		
0.336566		-2.867207		-11.888772		87.427473		0.053562		1.843418		1.371687		46.822619		-4.949354		9.432228		-109.262788		-25.924478		0.565496		11.761270		71.927411		-4.993432		-1.126854		-97.199884		-9.684770		-4.471707		12.735674		-38.822089		-1.573479		4.389794		21.831181		2.443178		-4.877075		87.873856		-18.222171		10.072061		74.975893		133.999944		19.436131		2.688158		-17.744383		86.508202		-14.011862		22.239665		58.742399		124.465676		-3.953908		2.347290		-7.385303		
0.340859		-2.782512		-11.544253		87.440932		0.052885		1.841169		1.364072		47.022500		-4.978500		9.136002		-108.687701		-26.012093		-0.689032		11.312295		71.783602		-4.915620		-1.022527		-96.011442		-9.822360		-3.917232		13.191907		-39.277674		-1.477396		4.468029		21.992022		2.327847		-4.820336		87.078420		-18.453722		10.122764		74.209050		134.073501		19.279175		2.829929		-17.746082		85.972422		-14.277391		22.192201		58.491222		124.848258		-4.090063		2.106148		-7.323540		
